<?xml version="1.0" standalone="no"?><!DOCTYPE svg PUBLIC "-//W3C//DTD SVG 1.1//EN" "http://www.w3.org/Graphics/SVG/1.1/DTD/svg11.dtd"><svg t="1565350399725" class="icon" viewBox="0 0 1024 1024" version="1.1" xmlns="http://www.w3.org/2000/svg" p-id="1177" xmlns:xlink="http://www.w3.org/1999/xlink" width="200" height="200"><defs><style type="text/css"></style></defs><path d="M747.554133 494.2848a25.258667 25.258667 0 0 1 25.463467-25.053867 25.258667 25.258667 0 0 1 25.429333 25.053867v267.195733c0 50.722133-41.7792 91.8528-93.320533 91.8528H263.9872C212.445867 853.333333 170.666667 812.202667 170.666667 761.514667V327.2704c0-50.756267 41.7792-91.8528 93.320533-91.8528h237.568a25.258667 25.258667 0 0 1 25.429333 25.053867 25.258667 25.258667 0 0 1-25.463466 25.019733H263.9872c-23.415467 0-42.427733 18.705067-42.427733 41.7792v434.176c0 23.074133 19.012267 41.745067 42.427733 41.745067h441.1392c23.4496 0 42.427733-18.670933 42.427733-41.745067v-267.195733z m-243.131733 80.725333l200.704-200.738133-59.972267-60.0064-200.704 200.772267 59.972267 59.972266z m-35.4304 35.4304l-60.0064-59.972266-11.400533 11.3664-14.267734 74.308266 74.274134-14.336 11.400533-11.3664z m271.598933-271.598933l48.162134-48.196267-59.972267-59.972266-48.196267 48.196266 60.0064 59.972267z m-30.1056-161.8944a25.258667 25.258667 0 0 1 35.7376 0.3072l95.982934 95.982933a25.258667 25.258667 0 0 1 0.273066 35.703467L488.209067 663.210667a24.7808 24.7808 0 0 1-12.834134 6.792533l-118.852266 22.869333a25.668267 25.668267 0 0 1-29.934934-29.969066l22.869334-118.852267a24.7808 24.7808 0 0 1 6.792533-12.834133L710.485333 176.9472z" fill="#979797" p-id="1178"></path></svg>