<?xml version="1.0" standalone="no"?><!DOCTYPE svg PUBLIC "-//W3C//DTD SVG 1.1//EN" "http://www.w3.org/Graphics/SVG/1.1/DTD/svg11.dtd"><svg t="1565350511882" class="icon" viewBox="0 0 1024 1024" version="1.1" xmlns="http://www.w3.org/2000/svg" p-id="1413" xmlns:xlink="http://www.w3.org/1999/xlink" width="200" height="200"><defs><style type="text/css"></style></defs><path d="M804.522667 533.947733l40.516266 80.213334a26.965333 26.965333 0 1 1-48.128 24.302933l-40.6528-80.554667c-24.1664 10.8544-48.3328 19.968-72.533333 27.3408l14.5408 66.730667a26.965333 26.965333 0 0 1-52.6336 11.4688l-14.199467-64.955733c-25.088 5.085867-50.244267 8.260267-75.434666 9.6256v76.3904a26.965333 26.965333 0 0 1-53.896534 0v-76.3904a520.533333 520.533333 0 0 1-74.990933-9.557334l-15.2576 65.1264a26.965333 26.965333 0 1 1-52.462933-12.288l15.4624-66.013866a614.877867 614.877867 0 0 1-72.977067-27.477334l-40.686933 80.554667a26.965333 26.965333 0 1 1-48.128-24.302933l40.5504-80.213334c-17.92-9.796267-35.805867-20.48-53.6576-32.187733a26.965333 26.965333 0 0 1 29.457066-45.124267c100.590933 65.706667 200.362667 98.304 299.656534 98.304s199.031467-32.597333 299.656533-98.304a26.965333 26.965333 0 0 1 29.457067 45.124267c-17.851733 11.6736-35.771733 22.391467-53.6576 32.187733z" fill="#979797" p-id="1414"></path></svg>